<?xml version="1.0" encoding="utf-8"?>
<!-- Generator: Adobe Illustrator 25.2.3, SVG Export Plug-In . SVG Version: 6.00 Build 0)  -->
<svg version="1.1" xmlns="http://www.w3.org/2000/svg" xmlns:xlink="http://www.w3.org/1999/xlink" x="0px" y="0px"
	 viewBox="0 0 1500 259.1" style="enable-background:new 0 0 1500 259.1;" xml:space="preserve">
<style type="text/css">
	.st0{fill:url(#SVGID_1_);}
	.st1{clip-path:url(#SVGID_3_);}
	.st2{opacity:0.1;fill:url(#SVGID_4_);}
	.st3{opacity:0.1;fill:url(#SVGID_5_);}
	.st4{opacity:0.1;fill:url(#SVGID_6_);}
	.st5{opacity:0.1;fill:url(#SVGID_7_);}
	.st6{fill:#041E42;}
	.st7{display:none;fill:#E9EAEC;}
	.st8{fill:#00C7FD;}
	.st9{fill:none;stroke:#041E42;stroke-width:10.2436;stroke-miterlimit:10;}
	.st10{fill:url(#SVGID_8_);}
	.st11{clip-path:url(#SVGID_10_);}
	.st12{opacity:0.1;fill:url(#SVGID_11_);}
	.st13{opacity:0.1;fill:url(#SVGID_12_);}
	.st14{opacity:0.1;fill:url(#SVGID_13_);}
	.st15{opacity:0.1;fill:url(#SVGID_14_);}
	.st16{fill:#F5F6FA;}
	.st17{fill:none;stroke:#F5F6FA;stroke-width:10.2436;stroke-miterlimit:10;}
	.st18{fill:#E9EAEC;}
	.st19{fill:#0068B5;}
</style>
<g id="light">
</g>
<g id="dark">
	<g>
		<defs>
			<rect id="SVGID_9_" x="-6577.5" y="0" width="6380.3" height="2508.7"/>
		</defs>
		<clipPath id="SVGID_1_">
			<use xlink:href="#SVGID_9_"  style="overflow:visible;"/>
		</clipPath>
		<g style="opacity:0.1;clip-path:url(#SVGID_1_);">
			
				<image style="overflow:visible;" width="6000" height="4000" xlink:href="futuristic-blue-glowing-neon-lines-lights-space-background-3d-rendering.jpg"  transform="matrix(1.1599 0 0 1.1599 -6577.5044 -1065.4713)">
			</image>
		</g>
	</g>
</g>
<g id="Layer_4">
	<g>
		<g>
			<path class="st16" d="M479.3,175.7c0.5,1.1,0.4,2.4-0.3,3.5c-0.7,1-1.8,1.7-3.1,1.7h-8.9c-1.4,0-2.7-0.8-3.3-2.1l-37.3-82
				l-37.3,82c-0.6,1.3-1.9,2.1-3.3,2.1h-8.9c-1.2,0-2.4-0.6-3.1-1.7c-0.7-1-0.8-2.3-0.3-3.5L417,80.4c0.6-1.3,1.9-2.1,3.3-2.1h12.3
				c1.4,0,2.7,0.8,3.3,2.1L479.3,175.7L479.3,175.7z"/>
			<path class="st16" d="M616.3,178.9c-0.6,1.2-1.9,2-3.2,2c-10.8,0-12.1,0.5-13.5-1.5l-29.5-42h-25.4v40c0,2-1.6,3.6-3.6,3.6h-8.5
				c-1,0-1.9-0.4-2.6-1.1c-0.7-0.7-1.1-1.6-1.1-2.6v-51.7c0-2,1.6-3.6,3.6-3.6h49.3c7.8,0,14.1-6.3,14.1-14.1
				c0-7.8-6.3-14.1-14.1-14.1h-49.3c-2,0-3.6-1.6-3.6-3.6v-8.1c0-2,1.6-3.6,3.6-3.6h49.7c15,0,27.6,11.2,29.3,26.1
				c1.7,14.9-8,28.7-22.6,32.1l27.1,38.7C616.8,176.2,616.9,177.7,616.3,178.9z"/>
			<path class="st16" d="M713.9,78.3h39.2c2,0,3.6,1.6,3.6,3.6v25.7c0,2-1.6,3.6-3.6,3.6h-8.5c-2,0-3.6-1.6-3.6-3.6V93.7h-27.1
				c-17.8,0-32.2,14.4-32.2,32.2v7.4c0,8.5,3.4,16.7,9.4,22.8c6,6,14.2,9.4,22.8,9.4h19.6c1,0,1.9,0.4,2.6,1.1
				c0.7,0.7,1.1,1.6,1.1,2.6v8.1c0,1-0.4,1.9-1.1,2.6c-0.7,0.7-1.6,1.1-2.6,1.1h-19.6c-26.5,0-48-21.5-48-48v-6.6
				C665.9,99.8,687.4,78.3,713.9,78.3L713.9,78.3z"/>
			<path class="st16" d="M891.1,84.5l-40,47.1V177c0,2-1.6,3.6-3.6,3.6h-8.5c-2,0-3.6-1.6-3.6-3.6v-45.4l-27.6-32.2
				c-0.9-1.1-1.1-2.6-0.5-3.9c0.6-1.3,1.9-2.1,3.3-2.1h10.1c1.1,0,2.1,0.5,2.8,1.3l19.8,23l32.2-37.9c0.7-0.8,1.7-1.3,2.8-1.3h10.2
				c1.4,0,2.7,0.8,3.3,2.1C892.2,81.9,892,83.4,891.1,84.5z"/>
			<path class="st16" d="M941.2,177.2v-68.9c0-2,1.6-3.6,3.6-3.6h0h8.5c2,0,3.6,1.6,3.6,3.6v68.9c0,2-1.6,3.6-3.6,3.6l0,0h-8.5
				C942.8,180.9,941.2,179.2,941.2,177.2z"/>
			<path class="st8" d="M941.2,90.4v-8.5c0-2,1.6-3.6,3.6-3.6h0h8.5c2,0,3.6,1.6,3.6,3.6v8.5c0,2-1.6,3.6-3.6,3.6h0h-8.5
				C942.8,94.1,941.2,92.4,941.2,90.4z"/>
			<path class="st16" d="M1097.5,81.9v95.3c0,2-1.6,3.6-3.6,3.6h-13c-1.2,0-2.3-0.6-3-1.5l-55.9-78.8v51.8c0,1-0.4,1.9-1.1,2.6
				c-0.7,0.7-1.6,1.1-2.6,1.1h-8.5c-2,0-3.6-1.6-3.6-3.6V81.9c0-1,0.4-1.9,1.1-2.6c0.7-0.7,1.6-1.1,2.6-1.1h13c1.2,0,2.3,0.6,3,1.5
				l55.9,78.8V81.9c0-2,1.6-3.6,3.6-3.6h8.5C1095.9,78.3,1097.5,79.9,1097.5,81.9z"/>
			<path class="st16" d="M1230.5,81.9V90c0,2-1.6,3.6-3.6,3.6h-30.4v83.6c0,2-1.6,3.6-3.6,3.6h-8.5c-2,0-3.6-1.6-3.6-3.6V93.7h-30.4
				c-2,0-3.6-1.6-3.6-3.6v-8.1c0-2,1.6-3.6,3.6-3.6h76.5C1228.9,78.3,1230.5,79.9,1230.5,81.9z"/>
			<path class="st16" d="M1279.7,93.7V78.3c0,0,1.6,0,3.6,0c2,0,72.3,0,72.3,0v15.4c0,0-1.6,0-3.6,0
				C1350,93.7,1279.7,93.7,1279.7,93.7z M1355.7,169.1v8.1c0,2-1.6,3.6-3.6,3.6h-68.6c-2,0-3.6-1.6-3.6-3.6l-0.1-11.8h0.1v-40
				c0-2,1.6-3.6,3.6-3.6h60.9c1,0,1.9,0.4,2.6,1.1c0.7,0.7,1.1,1.6,1.1,2.6v8.1c0,1-0.4,1.9-1.1,2.6c-0.7,0.7-1.6,1.1-2.6,1.1h-48.8
				v28.2h56.4C1354,165.5,1355.7,167.1,1355.7,169.1z"/>
			<path class="st16" d="M1420.7,165.5h49.2c2,0,3.6,1.6,3.6,3.6v8.1c0,2-1.6,3.6-3.6,3.6h-61.4c-2,0-3.6-1.6-3.6-3.6V81.9
				c0-2,1.6-3.6,3.6-3.6h8.5c1,0,1.9,0.4,2.6,1.1c0.7,0.7,1.1,1.6,1.1,2.6V165.5z"/>
		</g>
		<g>
			<g>
				<path class="st8" d="M164.2,45V27.3c0-1.7,1.3-3,3-3H185c1.7,0,3,1.3,3,3V45c0,1.7-1.3,3-3,3h-17.8
					C165.5,48,164.2,46.7,164.2,45z"/>
				<path class="st8" d="M208.2,156.8V139c0-1.7,1.3-3,3-3H229c1.7,0,3,1.3,3,3v17.8c0,1.7-1.3,3-3,3h-17.8
					C209.5,159.8,208.2,158.4,208.2,156.8z"/>
				<path class="st8" d="M170.1,92.6l-18.8,0c-2.2,0-4,1.8-4,4v26.2c0,2.2,1.8,4,4,4l26.2,0c2.2,0,4-1.8,4-4V104
					c0-1.1,0.4-2.1,1.2-2.8l10.6-10.6c0.7-0.7,1.8-1.2,2.8-1.2l11.5,0c1.1,0,2.1,0.4,2.8,1.2l12.6,12.6c0.7,0.7,1.2,1.8,1.2,2.8
					v18.8c0,2.2,1.8,4,4,4h26.2c2.2,0,4-1.8,4-4V98.6c0-2.2-1.8-4-4-4h-18.8c-1.1,0-2.1-0.4-2.8-1.2L220,80.9
					c-0.7-0.7-1.2-1.8-1.2-2.8V59.2c0-2.2-1.8-4-4-4h-26.2c-2.2,0-4,1.8-4,4l0,18.8c0,1.1-0.4,2.1-1.2,2.8l-10.6,10.6
					C172.1,92.2,171.1,92.6,170.1,92.6z"/>
			</g>
			<g>
				<path class="st16" d="M237.9,236.4l-46.7-97.5c-1-2-3-3.3-5.2-3.3h-43.6l46.2,97c2.3,5,7.3,8.1,12.8,8.1h33.8
					C237.4,240.7,238.8,238.4,237.9,236.4z"/>
				<path class="st16" d="M152.3,57.6l-18.1-37.7c-0.9-1.9-3.6-1.9-4.5,0l-103,216.5c-0.9,2,0.5,4.2,2.7,4.2h33.9
					c5.5,0,10.5-3.2,12.9-8.2L152.4,68C153.9,64.7,153.9,60.9,152.3,57.6z"/>
			</g>
		</g>
		<g>
			<rect x="328.8" y="4.6" class="st16" width="2.8" height="250"/>
		</g>
	</g>
</g>
<g id="Layer_5">
</g>
<g id="color_palette">
</g>
</svg>
